<svg width="32" height="32" viewBox="0 0 32 32" fill="none" xmlns="http://www.w3.org/2000/svg">
  <!-- Modern Professional Favicon Design for Timestamp 1337 -->
  <!-- Background with gradient -->
  <defs>
    <linearGradient id="bgGrad" x1="0%" y1="0%" x2="100%" y2="100%">
      <stop offset="0%" style="stop-color:#03025d;stop-opacity:1" />
      <stop offset="100%" style="stop-color:#000000;stop-opacity:1" />
    </linearGradient>
    <pattern id="grid" width="4" height="4" patternUnits="userSpaceOnUse">
      <path d="M 4 0 L 0 0 0 4" fill="none" stroke="rgba(255,255,255,0.06)" stroke-width="0.3"/>
    </pattern>
  </defs>
  
  <!-- Background -->
  <rect width="32" height="32" rx="6" fill="url(#bgGrad)"/>
  <rect width="32" height="32" rx="6" fill="url(#grid)"/>
  
  <!-- Modern "1337" Typography - Clean and Readable -->
  <!-- Number "1" -->
  <rect x="5" y="7" width="2.5" height="14" rx="1.25" fill="white" opacity="0.95"/>
  <rect x="4" y="7" width="1.5" height="4" rx="0.75" fill="white" opacity="0.7"/>
  
  <!-- Number "3" - First -->
  <path d="M 9.5 7 L 12.5 7 Q 13.5 7 13.5 8.5 Q 13.5 10 12.5 10 Q 13.5 10 13.5 11.5 Q 13.5 13 12.5 13 L 9.5 13" 
        stroke="white" stroke-width="1.8" fill="none" stroke-linecap="round" stroke-linejoin="round" opacity="0.95"/>
  
  <!-- Number "3" - Second -->
  <path d="M 17.5 7 L 20.5 7 Q 21.5 7 21.5 8.5 Q 21.5 10 20.5 10 Q 21.5 10 21.5 11.5 Q 21.5 13 20.5 13 L 17.5 13" 
        stroke="white" stroke-width="1.8" fill="none" stroke-linecap="round" stroke-linejoin="round" opacity="0.95"/>
  
  <!-- Number "7" -->
  <path d="M 23.5 7 L 23.5 9 L 26.5 7 L 26.5 13" 
        stroke="white" stroke-width="1.8" fill="none" stroke-linecap="round" stroke-linejoin="round" opacity="0.95"/>
  
  <!-- Tech Accent Lines - Subtle -->
  <line x1="4" y1="19" x2="28" y2="19" stroke="rgba(255,255,255,0.25)" stroke-width="0.5"/>
  <line x1="4" y1="21" x2="28" y2="21" stroke="rgba(255,255,255,0.15)" stroke-width="0.5"/>
  
  <!-- Corner Tech Indicators -->
  <circle cx="7" cy="24" r="1.2" fill="rgba(255,255,255,0.5)"/>
  <circle cx="25" cy="24" r="1.2" fill="rgba(255,255,255,0.5)"/>
  
  <!-- Subtle Border -->
  <rect x="0.5" y="0.5" width="31" height="31" rx="5.5" fill="none" stroke="rgba(255,255,255,0.1)" stroke-width="1"/>
</svg>
